<?xml version="1.0" encoding="UTF-8" standalone="no" ?>
<!DOCTYPE svg PUBLIC "-//W3C//DTD SVG 1.1//EN" "http://www.w3.org/Graphics/SVG/1.1/DTD/svg11.dtd">
<svg xmlns="http://www.w3.org/2000/svg" xmlns:xlink="http://www.w3.org/1999/xlink" version="1.1" width="1080" height="1080" viewBox="0 0 1080 1080" xml:space="preserve">
<desc>Created with Fabric.js 5.2.4</desc>
<defs>
</defs>
<g transform="matrix(1 0 0 1 540 540)" id="fed13639-4e0d-41b0-bb64-5800caf8101a"  >
<rect style="stroke: none; stroke-width: 1; stroke-dasharray: none; stroke-linecap: butt; stroke-dashoffset: 0; stroke-linejoin: miter; stroke-miterlimit: 4; fill: rgb(3,51,47); fill-rule: nonzero; opacity: 1;" vector-effect="non-scaling-stroke"  x="-540" y="-540" rx="0" ry="0" width="1080" height="1080" />
</g>
<g transform="matrix(1 0 0 1 540 540)" id="09eddfc1-0bb3-48e4-8218-bf8117128bde"  >
</g>
<g transform="matrix(1 0 0 1 540 540)"  >
<g style="" vector-effect="non-scaling-stroke"   >
		<g transform="matrix(1 0 0 1 0 0)"  >
<path style="stroke: none; stroke-width: 1; stroke-dasharray: none; stroke-linecap: butt; stroke-dashoffset: 0; stroke-linejoin: miter; stroke-miterlimit: 4; fill: rgb(3,51,47); fill-rule: nonzero; opacity: 1;" vector-effect="non-scaling-stroke"  transform=" translate(-226.95, -256.95)" d="M 1 476 L 1 1.053 L 452.896 1.053 L 452.896 512.8380000000001 L 1 512.8380000000001 L 1.4689999999999999 480.46600000000007 L 82.022 480 C 76.73 449.222 78.486 419.188 85.638 389.379 C 98.21900000000001 336.937 125.714 292.93100000000004 162.23000000000002 254.04100000000003 C 190.47600000000003 223.95900000000003 223.05700000000002 199.19500000000002 257.797 177.24200000000002 C 271.112 168.82800000000003 285.252 161.721 298.995 153.991 C 298.974 153.96300000000002 298.938 153.90300000000002 299.189 154.20800000000003 C 288.117 173.13200000000003 276.17900000000003 191.41100000000003 265.611 210.449 C 249.315 239.805 236.405 270.627 229.50099999999998 303.693 C 225.01 325.204 222.93699999999998 346.91499999999996 226.51199999999997 368.71299999999997 C 232.84399999999997 407.32099999999997 254.63899999999998 435.15799999999996 288.724 453.09599999999995 C 323.118 471.19699999999995 359.854 480.90199999999993 399.07 480.054 C 414.185 479.727 429.313 480.001 444.972 480.001 L 289.819 35.03 C 288.877 34.95 288.224 34.845 287.57 34.845 C 244.911 34.836 202.252 34.900999999999996 159.595 34.721 C 155.831 34.705 155.26 36.739999999999995 154.363 39.299 L 19.957 422.962 L 1 476 z" stroke-linecap="round" />
</g>
		<g transform="matrix(1 0 0 1 -3.96 0.47)"  >
<path style="stroke: none; stroke-width: 1; stroke-dasharray: none; stroke-linecap: butt; stroke-dashoffset: 0; stroke-linejoin: miter; stroke-miterlimit: 4; fill: rgb(255,255,255); fill-rule: nonzero; opacity: 1;" vector-effect="non-scaling-stroke"  transform=" translate(-222.99, -257.41)" d="M 1 476.4 L 19.957 422.962 L 154.363 39.3 C 155.259 36.739999999999995 155.83 34.705999999999996 159.595 34.721999999999994 L 287.57 34.846 C 288.224 34.846 288.878 34.949999999999996 289.819 35.031 L 444.972 480 C 429.313 480 414.185 479.726 399.07 480.053 C 359.854 480.902 323.118 471.196 288.724 453.095 C 254.64 435.15700000000004 232.844 407.32000000000005 226.512 368.71200000000005 C 222.937 346.91400000000004 225.01 325.20300000000003 229.501 303.69200000000006 C 236.405 270.62700000000007 249.315 239.80500000000006 265.611 210.44800000000006 C 276.179 191.41000000000005 288.116 173.13100000000006 299.392 154.36500000000007 C 299.426 153.93700000000007 299.509 153.65700000000007 299.591 153.37600000000006 L 299.016 154.01800000000006 C 285.252 161.72100000000006 271.112 168.82800000000006 257.797 177.24100000000004 C 223.05700000000002 199.19300000000004 190.47600000000003 223.95700000000005 162.23000000000002 254.04000000000005 C 125.71400000000003 292.92900000000003 98.22000000000001 336.93600000000004 85.63800000000002 389.37800000000004 C 78.48700000000002 419.18700000000007 76.73000000000002 449.22200000000004 82.02200000000002 479.999 C 55.19700000000002 479.999 28.56700000000002 479.999 1.4680000000000177 479.999 C 1 478.933 1 477.867 1 476.4 z" stroke-linecap="round" />
</g>
		<g transform="matrix(1 0 0 1 72.34 -103.23)"  >
<path style="stroke: none; stroke-width: 1; stroke-dasharray: none; stroke-linecap: butt; stroke-dashoffset: 0; stroke-linejoin: miter; stroke-miterlimit: 4; fill: rgb(255,255,255); fill-rule: nonzero; opacity: 1;" vector-effect="non-scaling-stroke"  transform=" translate(-299.28, -153.72)" d="M 298.995 153.991 C 299.208 153.805 299.4 153.591 299.591 153.377 C 299.509 153.65800000000002 299.426 153.93900000000002 299.141 154.061 C 298.93800000000005 153.90300000000002 298.97400000000005 153.963 298.995 153.991 z" stroke-linecap="round" />
</g>
</g>
</g>
<g transform="matrix(NaN NaN NaN NaN 0 0)"  >
<g style=""   >
</g>
</g>
<g transform="matrix(NaN NaN NaN NaN 0 0)"  >
<g style=""   >
</g>
</g>
</svg>