<?xml version="1.0" encoding="UTF-8" standalone="no" ?>
<!DOCTYPE svg PUBLIC "-//W3C//DTD SVG 1.1//EN" "http://www.w3.org/Graphics/SVG/1.1/DTD/svg11.dtd">
<svg xmlns="http://www.w3.org/2000/svg" xmlns:xlink="http://www.w3.org/1999/xlink" version="1.1" width="1080" height="1080" viewBox="0 0 1080 1080" xml:space="preserve">
<desc>Created with Fabric.js 5.2.4</desc>
<defs>
</defs>
<g transform="matrix(1 0 0 1 540 540)" id="188e0092-e35d-48d1-b6bf-4ed157bd7bcd"  >
<rect style="stroke: none; stroke-width: 1; stroke-dasharray: none; stroke-linecap: butt; stroke-dashoffset: 0; stroke-linejoin: miter; stroke-miterlimit: 4; fill: rgb(255,255,255); fill-rule: nonzero; opacity: 1; visibility: hidden;" vector-effect="non-scaling-stroke"  x="-540" y="-540" rx="0" ry="0" width="1080" height="1080" />
</g>
<g transform="matrix(1 0 0 1 540 540)" id="604617f0-5fcd-456e-9438-01cf8e20ae09"  >
</g>
<g transform="matrix(0.88 0 0 0.88 540 540)"  >
<g style="" vector-effect="non-scaling-stroke"   >
		<g transform="matrix(1 0 0 1 -139.09 -70.53)"  >
<path style="stroke: none; stroke-width: 0; stroke-dasharray: none; stroke-linecap: butt; stroke-dashoffset: 0; stroke-linejoin: miter; stroke-miterlimit: 4; fill: rgb(3,51,47); fill-rule: nonzero; opacity: 1;" vector-effect="non-scaling-stroke"  transform=" translate(-290.77, -104.03)" d="M 301.99 58.04 C 282.82 58.04 268.04 64.88 257.64 76.66 L 257.64 0 L 208.35999999999999 0 L 208.35999999999999 204.79 L 254.07999999999998 204.79 L 254.07999999999998 184.79999999999998 C 264.47999999999996 199.57999999999998 280.64 208.07 301.99 208.07 C 343.06 208.07 373.18 177.68 373.18 133.05 C 373.18 88.42000000000002 343.06 58.030000000000015 301.99 58.030000000000015 Z M 290.22 171.67 C 270.78000000000003 171.67 257.64000000000004 155.79 257.64000000000004 133.07 C 257.64000000000004 110.35 270.78000000000003 94.47 290.22 94.47 C 309.66 94.47 323.07000000000005 110.35 323.07000000000005 133.07 C 323.07000000000005 155.79 309.93000000000006 171.67 290.22 171.67 Z" stroke-linecap="round" />
</g>
		<g transform="matrix(1 0 0 1 34.49 -70.53)"  >
<path style="stroke: none; stroke-width: 0; stroke-dasharray: none; stroke-linecap: butt; stroke-dashoffset: 0; stroke-linejoin: miter; stroke-miterlimit: 4; fill: rgb(3,51,47); fill-rule: nonzero; opacity: 1;" vector-effect="non-scaling-stroke"  transform=" translate(-464.35, -104.03)" d="M 475.57 58.04 C 456.4 58.04 441.62 64.88 431.21999999999997 76.66 L 431.21999999999997 0 L 381.93999999999994 0 L 381.93999999999994 204.79 L 427.65999999999997 204.79 L 427.65999999999997 184.79999999999998 C 438.05999999999995 199.57999999999998 454.21999999999997 208.07 475.56999999999994 208.07 C 516.64 208.07 546.76 177.68 546.76 133.05 C 546.76 88.42000000000002 516.64 58.030000000000015 475.57 58.030000000000015 Z M 463.8 171.67 C 444.36 171.67 431.22 155.79 431.22 133.07 C 431.22 110.35 444.36 94.47 463.8 94.47 C 483.24 94.47 496.65000000000003 110.35 496.65000000000003 133.07 C 496.65000000000003 155.79 483.51000000000005 171.67 463.8 171.67 Z" stroke-linecap="round" />
</g>
		<g transform="matrix(1 0 0 1 201.28 -41.51)"  >
<path style="stroke: none; stroke-width: 0; stroke-dasharray: none; stroke-linecap: butt; stroke-dashoffset: 0; stroke-linejoin: miter; stroke-miterlimit: 4; fill: rgb(3,51,47); fill-rule: nonzero; opacity: 1;" vector-effect="non-scaling-stroke"  transform=" translate(-631.14, -133.06)" d="M 634.65 58.04 C 588.93 58.04 554.6999999999999 88.43 554.6999999999999 133.06 C 554.6999999999999 177.69 590.02 208.07999999999998 634.92 208.07999999999998 C 676.54 208.07999999999998 701.4499999999999 178.79 706.93 166.45999999999998 L 688.04 153.86999999999998 C 674.0799999999999 163.72999999999996 659.02 169.47999999999996 643.14 169.47999999999996 C 624.25 169.47999999999996 608.1 159.07999999999996 603.99 139.35999999999996 L 706.66 139.35999999999996 C 713.23 94.45999999999995 683.9399999999999 58.039999999999964 634.65 58.039999999999964 Z M 604.26 116.36 C 608.09 96.1 620.96 87.89 634.65 87.89 C 651.9 87.89 661.75 99.94 662.3 116.36 L 604.26 116.36 Z" stroke-linecap="round" />
</g>
		<g transform="matrix(1 0 0 1 350.87 -13.03)"  >
<polygon style="stroke: none; stroke-width: 0; stroke-dasharray: none; stroke-linecap: butt; stroke-dashoffset: 0; stroke-linejoin: miter; stroke-miterlimit: 4; fill: rgb(3,51,47); fill-rule: nonzero; opacity: 1;" vector-effect="non-scaling-stroke"  points="36.82,-100.21 5.61,-10.13 -26.42,-100.21 -78.99,-100.21 -19.03,49.83 -46.68,100.2 1.23,100.2 78.99,-100.21 36.82,-100.21 " />
</g>
		<g transform="matrix(1 0 0 1 -330.2 -69.43)"  >
<path style="stroke: none; stroke-width: 0; stroke-dasharray: none; stroke-linecap: butt; stroke-dashoffset: 0; stroke-linejoin: miter; stroke-miterlimit: 4; fill: rgb(3,51,47); fill-rule: nonzero; opacity: 1;" vector-effect="non-scaling-stroke"  transform=" translate(-99.66, -105.14)" d="M 69.82 5.48 L 0 204.79 L 36.76 204.79 C 34.54 193.57 22.709999999999997 117.16999999999999 134.94 58.03999999999999 C 134.94 58.03999999999999 40.379999999999995 183.93 165.11 204.25 C 167.29000000000002 204.61 169.5 204.79 171.71 204.79 L 199.31 204.79 L 129.78 5.48 L 69.82 5.48 Z" stroke-linecap="round" />
</g>
		<g transform="matrix(1 0 0 1 -340.02 104.56)"  >
<polygon style="stroke: none; stroke-width: 0; stroke-dasharray: none; stroke-linecap: butt; stroke-dashoffset: 0; stroke-linejoin: miter; stroke-miterlimit: 4; fill: rgb(3,51,47); fill-rule: nonzero; opacity: 1;" vector-effect="non-scaling-stroke"  points="-12.65,-12.3 -2.85,-12.3 -2.85,17.5 2.55,17.5 2.55,-12.3 12.65,-12.3 12.65,-17.5 -12.65,-17.5 -12.65,-12.3 " />
</g>
		<g transform="matrix(1 0 0 1 -299.09 104.56)"  >
<polygon style="stroke: none; stroke-width: 0; stroke-dasharray: none; stroke-linecap: butt; stroke-dashoffset: 0; stroke-linejoin: miter; stroke-miterlimit: 4; fill: rgb(3,51,47); fill-rule: nonzero; opacity: 1;" vector-effect="non-scaling-stroke"  points="8.73,-2.55 -8.72,-2.55 -8.72,-17.5 -14.12,-17.5 -14.12,17.5 -8.72,17.5 -8.72,2.65 8.73,2.65 8.73,17.5 14.13,17.5 14.13,-17.5 8.73,-17.5 8.73,-2.55 " />
</g>
		<g transform="matrix(1 0 0 1 -257.64 104.56)"  >
<polygon style="stroke: none; stroke-width: 0; stroke-dasharray: none; stroke-linecap: butt; stroke-dashoffset: 0; stroke-linejoin: miter; stroke-miterlimit: 4; fill: rgb(3,51,47); fill-rule: nonzero; opacity: 1;" vector-effect="non-scaling-stroke"  points="-11.03,17.5 11.03,17.5 11.03,12.3 -5.63,12.3 -5.63,2.15 8.28,2.15 8.28,-3.05 -5.63,-3.05 -5.63,-12.3 11.03,-12.3 11.03,-17.5 -11.03,-17.5 -11.03,17.5 " />
</g>
		<g transform="matrix(1 0 0 1 -193.92 104.56)"  >
<path style="stroke: none; stroke-width: 0; stroke-dasharray: none; stroke-linecap: butt; stroke-dashoffset: 0; stroke-linejoin: miter; stroke-miterlimit: 4; fill: rgb(3,51,47); fill-rule: nonzero; opacity: 1;" vector-effect="non-scaling-stroke"  transform=" translate(-235.94, -279.13)" d="M 246.54 266.48 C 245.10999999999999 264.91 243.38 263.71000000000004 241.35999999999999 262.88 C 239.33999999999997 262.05 237.08999999999997 261.63 234.58999999999997 261.63 L 220.89 261.63 L 220.89 296.63 L 234.58999999999997 296.63 C 237.08999999999997 296.63 239.35999999999999 296.21 241.39 295.38 C 243.42 294.55 245.14999999999998 293.35 246.57 291.8 C 247.98999999999998 290.25 249.07999999999998 288.40000000000003 249.84 286.25 C 250.61 284.1 250.99 281.72 250.99 279.13 C 250.99 276.53999999999996 250.61 274.15999999999997 249.84 272.03 C 249.07 269.9 247.97 268.04999999999995 246.54 266.47999999999996 Z M 244.74 284.28 C 244.24 285.80999999999995 243.51000000000002 287.09999999999997 242.57000000000002 288.15999999999997 C 241.62000000000003 289.21 240.45000000000002 290.02 239.07000000000002 290.58 C 237.69000000000003 291.15 236.11 291.43 234.34000000000003 291.43 L 226.29000000000002 291.43 L 226.29000000000002 266.83 L 234.34000000000003 266.83 C 236.11000000000004 266.83 237.67000000000004 267.10999999999996 239.04000000000002 267.68 C 240.41000000000003 268.25 241.57000000000002 269.06 242.54000000000002 270.13 C 243.51000000000002 271.2 244.24 272.49 244.74 274.01 C 245.24 275.53 245.49 277.23 245.49 279.13 C 245.49 281.03 245.24 282.75 244.74 284.28 Z" stroke-linecap="round" />
</g>
		<g transform="matrix(1 0 0 1 -154.04 104.56)"  >
<polygon style="stroke: none; stroke-width: 0; stroke-dasharray: none; stroke-linecap: butt; stroke-dashoffset: 0; stroke-linejoin: miter; stroke-miterlimit: 4; fill: rgb(3,51,47); fill-rule: nonzero; opacity: 1;" vector-effect="non-scaling-stroke"  points="-11.02,17.5 11.02,17.5 11.02,12.3 -5.63,12.3 -5.63,2.15 8.27,2.15 8.27,-3.05 -5.63,-3.05 -5.63,-12.3 11.02,-12.3 11.02,-17.5 -11.02,-17.5 -11.02,17.5 " />
</g>
		<g transform="matrix(1 0 0 1 -117.32 104.57)"  >
<path style="stroke: none; stroke-width: 0; stroke-dasharray: none; stroke-linecap: butt; stroke-dashoffset: 0; stroke-linejoin: miter; stroke-miterlimit: 4; fill: rgb(3,51,47); fill-rule: nonzero; opacity: 1;" vector-effect="non-scaling-stroke"  transform=" translate(-312.54, -279.14)" d="M 322.49 280.08 C 321.49 279.25 320.27 278.52 318.84000000000003 277.90999999999997 C 317.41 277.28999999999996 315.77000000000004 276.78999999999996 313.94000000000005 276.38 C 312.64000000000004 276.11 311.52000000000004 275.8 310.59000000000003 275.46 C 309.66 275.10999999999996 308.92 274.71 308.37 274.26 C 307.82 273.81 307.41 273.28999999999996 307.14 272.71 C 306.87 272.13 306.74 271.47999999999996 306.74 270.78999999999996 C 306.74 269.81999999999994 307.01 268.97999999999996 307.56 268.26 C 308.11 267.53999999999996 308.87 266.98 309.83 266.59 C 310.8 266.19 311.93 265.98999999999995 313.22999999999996 265.98999999999995 C 314.35999999999996 265.98999999999995 315.42999999999995 266.17999999999995 316.42999999999995 266.56999999999994 C 317.42999999999995 266.94999999999993 318.34999999999997 267.5199999999999 319.17999999999995 268.2699999999999 C 320.00999999999993 269.0199999999999 320.75999999999993 269.93999999999994 321.42999999999995 271.0499999999999 L 325.22999999999996 267.2999999999999 C 324.46 265.9699999999999 323.49999999999994 264.8399999999999 322.33 263.9199999999999 C 321.15999999999997 262.9999999999999 319.83 262.3099999999999 318.33 261.8399999999999 C 316.83 261.36999999999995 315.18 261.13999999999993 313.38 261.13999999999993 C 311.68 261.13999999999993 310.1 261.37999999999994 308.63 261.85999999999996 C 307.15999999999997 262.34 305.89 263.03 304.8 263.90999999999997 C 303.72 264.78999999999996 302.87 265.83 302.25 267.03 C 301.63 268.22999999999996 301.32 269.53 301.32 270.92999999999995 C 301.32 272.3299999999999 301.54 273.65999999999997 301.96999999999997 274.80999999999995 C 302.4 275.9599999999999 303.07 276.97999999999996 303.96999999999997 277.88999999999993 C 304.86999999999995 278.7899999999999 305.98999999999995 279.5399999999999 307.32 280.13999999999993 C 308.65 280.73999999999995 310.21999999999997 281.2199999999999 312.02 281.5899999999999 C 313.15 281.7899999999999 314.15 282.0299999999999 315.02 282.30999999999995 C 315.89 282.5899999999999 316.64 282.91999999999996 317.28999999999996 283.28999999999996 C 317.93999999999994 283.65999999999997 318.46999999999997 284.05999999999995 318.89 284.48999999999995 C 319.31 284.91999999999996 319.62 285.40999999999997 319.81 285.93999999999994 C 320.01 286.4699999999999 320.11 287.03999999999996 320.11 287.63999999999993 C 320.11 288.5399999999999 319.81 289.3399999999999 319.21000000000004 290.0399999999999 C 318.61 290.7399999999999 317.79 291.2899999999999 316.76000000000005 291.6899999999999 C 315.7300000000001 292.08999999999986 314.58000000000004 292.2899999999999 313.31000000000006 292.2899999999999 C 311.24000000000007 292.2899999999999 309.46000000000004 291.8399999999999 307.96000000000004 290.9399999999999 C 306.46000000000004 290.0399999999999 304.89000000000004 288.4199999999999 303.26000000000005 286.08999999999986 L 299.56000000000006 290.33999999999986 C 300.59000000000003 291.83999999999986 301.77000000000004 293.09999999999985 303.09000000000003 294.10999999999984 C 304.41 295.1299999999998 305.87 295.8899999999998 307.49 296.3899999999998 C 309.11 296.8899999999998 310.87 297.1399999999998 312.76 297.1399999999998 C 315.39 297.1399999999998 317.65999999999997 296.6999999999998 319.56 295.80999999999983 C 321.46 294.92999999999984 322.93 293.66999999999985 323.96 292.03999999999985 C 324.98999999999995 290.40999999999985 325.51 288.46999999999986 325.51 286.23999999999984 C 325.51 285.03999999999985 325.25 283.91999999999985 324.74 282.8899999999998 C 324.22 281.85999999999984 323.47 280.9199999999998 322.47 280.0899999999998 Z" stroke-linecap="round" />
</g>
		<g transform="matrix(1 0 0 1 -79.67 104.56)"  >
<polygon style="stroke: none; stroke-width: 0; stroke-dasharray: none; stroke-linecap: butt; stroke-dashoffset: 0; stroke-linejoin: miter; stroke-miterlimit: 4; fill: rgb(3,51,47); fill-rule: nonzero; opacity: 1;" vector-effect="non-scaling-stroke"  points="-12.65,-12.3 -2.85,-12.3 -2.85,17.5 2.55,17.5 2.55,-12.3 12.65,-12.3 12.65,-17.5 -12.65,-17.5 -12.65,-12.3 " />
</g>
		<g transform="matrix(1 0 0 1 -45.82 104.56)"  >
<polygon style="stroke: none; stroke-width: 0; stroke-dasharray: none; stroke-linecap: butt; stroke-dashoffset: 0; stroke-linejoin: miter; stroke-miterlimit: 4; fill: rgb(3,51,47); fill-rule: nonzero; opacity: 1;" vector-effect="non-scaling-stroke"  points="8.35,12.5 2.7,12.5 2.7,-12.5 8.35,-12.5 8.35,-17.5 -8.35,-17.5 -8.35,-12.5 -2.71,-12.5 -2.71,12.5 -8.35,12.5 -8.35,17.5 8.35,17.5 8.35,12.5 " />
</g>
		<g transform="matrix(1 0 0 1 -6.53 104.56)"  >
<path style="stroke: none; stroke-width: 0; stroke-dasharray: none; stroke-linecap: butt; stroke-dashoffset: 0; stroke-linejoin: miter; stroke-miterlimit: 4; fill: rgb(3,51,47); fill-rule: nonzero; opacity: 1;" vector-effect="non-scaling-stroke"  transform=" translate(-423.32, -279.13)" d="M 413.69 279.5 C 413.66 278.88 413.6 278.08 413.52 277.1 C 413.44 276.12 413.34 274.92 413.21999999999997 273.5 C 413.13 272.47 413.03999999999996 271.27 412.92999999999995 269.92 L 433.29999999999995 296.63 L 438.24999999999994 296.63 L 438.24999999999994 261.63 L 432.84999999999997 261.63 L 432.84999999999997 273.13 C 432.84999999999997 274.6 432.86999999999995 276.01 432.9 277.38 C 432.92999999999995 278.75 432.96999999999997 280.05 433.02 281.3 C 433.07 282.55 433.14 283.73 433.21999999999997 284.85 C 433.29999999999995 285.97 433.4 287.02000000000004 433.49999999999994 288 C 433.5299999999999 288.3 433.56999999999994 288.58 433.59999999999997 288.87 L 413.24999999999994 261.63 L 408.3999999999999 261.63 L 408.3999999999999 296.63 L 413.7999999999999 296.63 L 413.7999999999999 282.08 C 413.7999999999999 281.78 413.7999999999999 281.43 413.7799999999999 281.03 C 413.75999999999993 280.63 413.7399999999999 280.11999999999995 413.69999999999993 279.5 Z" stroke-linecap="round" />
</g>
		<g transform="matrix(1 0 0 1 37.28 104.56)"  >
<path style="stroke: none; stroke-width: 0; stroke-dasharray: none; stroke-linecap: butt; stroke-dashoffset: 0; stroke-linejoin: miter; stroke-miterlimit: 4; fill: rgb(3,51,47); fill-rule: nonzero; opacity: 1;" vector-effect="non-scaling-stroke"  transform=" translate(-467.14, -279.13)" d="M 474.34 287.93 L 477.64 296.63 L 483.39 296.63 L 469.94 261.63 L 464.44 261.63 L 450.89 296.63 L 456.39 296.63 L 459.7 287.93 L 474.34 287.93 Z M 465.08 273.6 C 465.38 272.75 465.69 271.84000000000003 466 270.88 C 466.32 269.90999999999997 466.62 269 466.9 268.13 C 466.95 267.96999999999997 466.98999999999995 267.85 467.03999999999996 267.7 C 467.04999999999995 267.74 467.05999999999995 267.76 467.06999999999994 267.8 C 467.36999999999995 268.72 467.69999999999993 269.72 468.06999999999994 270.83 C 468.43999999999994 271.93 468.75999999999993 272.93 469.04999999999995 273.83 C 469.3299999999999 274.72999999999996 469.53 275.3 469.61999999999995 275.53 L 472.34999999999997 282.72999999999996 L 461.65999999999997 282.72999999999996 L 464.32 275.72999999999996 C 464.52 275.15999999999997 464.77 274.46 465.07 273.60999999999996 Z" stroke-linecap="round" />
</g>
		<g transform="matrix(1 0 0 1 73.19 104.56)"  >
<polygon style="stroke: none; stroke-width: 0; stroke-dasharray: none; stroke-linecap: butt; stroke-dashoffset: 0; stroke-linejoin: miter; stroke-miterlimit: 4; fill: rgb(3,51,47); fill-rule: nonzero; opacity: 1;" vector-effect="non-scaling-stroke"  points="2.55,17.5 2.55,-12.3 12.65,-12.3 12.65,-17.5 -12.65,-17.5 -12.65,-12.3 -2.85,-12.3 -2.85,17.5 2.55,17.5 " />
</g>
		<g transform="matrix(1 0 0 1 107.03 104.56)"  >
<polygon style="stroke: none; stroke-width: 0; stroke-dasharray: none; stroke-linecap: butt; stroke-dashoffset: 0; stroke-linejoin: miter; stroke-miterlimit: 4; fill: rgb(3,51,47); fill-rule: nonzero; opacity: 1;" vector-effect="non-scaling-stroke"  points="8.35,12.5 2.69,12.5 2.69,-12.5 8.35,-12.5 8.35,-17.5 -8.35,-17.5 -8.35,-12.5 -2.7,-12.5 -2.7,12.5 -8.35,12.5 -8.35,17.5 8.35,17.5 8.35,12.5 " />
</g>
		<g transform="matrix(1 0 0 1 145.28 104.58)"  >
<path style="stroke: none; stroke-width: 0; stroke-dasharray: none; stroke-linecap: butt; stroke-dashoffset: 0; stroke-linejoin: miter; stroke-miterlimit: 4; fill: rgb(3,51,47); fill-rule: nonzero; opacity: 1;" vector-effect="non-scaling-stroke"  transform=" translate(-575.14, -279.15)" d="M 581.96 295.78 C 584.0400000000001 294.88 585.86 293.60999999999996 587.4100000000001 291.97999999999996 C 588.96 290.34999999999997 590.1600000000001 288.43999999999994 591.0100000000001 286.25999999999993 C 591.8600000000001 284.0799999999999 592.2900000000001 281.69999999999993 592.2900000000001 279.13999999999993 C 592.2900000000001 276.5799999999999 591.8600000000001 274.19999999999993 591.0100000000001 272.0199999999999 C 590.1600000000001 269.8399999999999 588.9600000000002 267.92999999999995 587.4100000000001 266.2999999999999 C 585.8600000000001 264.6699999999999 584.0400000000001 263.3999999999999 581.96 262.4999999999999 C 579.88 261.5999999999999 577.6 261.14999999999986 575.13 261.14999999999986 C 572.66 261.14999999999986 570.39 261.59999999999985 568.31 262.4999999999999 C 566.2299999999999 263.39999999999986 564.41 264.6599999999999 562.8599999999999 266.27999999999986 C 561.31 267.89999999999986 560.1099999999999 269.79999999999984 559.2599999999999 271.97999999999985 C 558.4099999999999 274.15999999999985 557.9899999999999 276.55999999999983 557.9899999999999 279.14999999999986 C 557.9899999999999 281.7399999999999 558.4199999999998 284.1399999999999 559.2599999999999 286.3199999999999 C 560.1099999999999 288.4999999999999 561.3099999999998 290.39999999999986 562.8599999999999 292.01999999999987 C 564.4099999999999 293.6399999999999 566.2299999999999 294.89999999999986 568.31 295.79999999999984 C 570.39 296.6999999999998 572.67 297.14999999999986 575.13 297.14999999999986 C 577.59 297.14999999999986 579.87 296.6999999999999 581.96 295.79999999999984 Z M 566.76 288.28 C 565.71 287.15 564.9 285.79999999999995 564.34 284.22999999999996 C 563.77 282.65999999999997 563.49 280.96 563.49 279.12999999999994 C 563.49 277.2999999999999 563.77 275.54999999999995 564.34 274.00999999999993 C 564.9100000000001 272.4599999999999 565.72 271.11999999999995 566.76 269.97999999999996 C 567.81 268.84999999999997 569.04 267.96 570.46 267.33 C 571.88 266.7 573.44 266.38 575.13 266.38 C 576.8199999999999 266.38 578.39 266.7 579.81 267.33 C 581.2299999999999 267.96 582.4499999999999 268.84999999999997 583.4799999999999 270 C 584.5099999999999 271.15 585.3199999999999 272.5 585.9099999999999 274.05 C 586.4899999999999 275.6 586.7899999999998 277.29 586.7899999999998 279.13 C 586.7899999999998 280.96999999999997 586.4999999999999 282.65999999999997 585.9099999999999 284.21 C 585.3299999999998 285.76 584.5199999999999 287.10999999999996 583.4799999999999 288.26 C 582.4499999999999 289.40999999999997 581.2199999999999 290.3 579.81 290.93 C 578.39 291.56 576.8299999999999 291.88 575.13 291.88 C 573.4300000000001 291.88 571.87 291.56 570.46 290.93 C 569.0400000000001 290.3 567.8100000000001 289.41 566.76 288.28000000000003 Z" stroke-linecap="round" />
</g>
		<g transform="matrix(1 0 0 1 190.15 104.56)"  >
<path style="stroke: none; stroke-width: 0; stroke-dasharray: none; stroke-linecap: butt; stroke-dashoffset: 0; stroke-linejoin: miter; stroke-miterlimit: 4; fill: rgb(3,51,47); fill-rule: nonzero; opacity: 1;" vector-effect="non-scaling-stroke"  transform=" translate(-620, -279.13)" d="M 610.38 279.5 C 610.35 278.88 610.29 278.08 610.2 277.1 C 610.12 276.12 610.0200000000001 274.92 609.9000000000001 273.5 C 609.8100000000001 272.47 609.7200000000001 271.27 609.6100000000001 269.92 L 629.9800000000001 296.63 L 634.9300000000002 296.63 L 634.9300000000002 261.63 L 629.5300000000002 261.63 L 629.5300000000002 273.13 C 629.5300000000002 274.6 629.5500000000002 276.01 629.5800000000002 277.38 C 629.6100000000001 278.75 629.6600000000002 280.05 629.7000000000002 281.3 C 629.7500000000001 282.55 629.8200000000002 283.73 629.9000000000002 284.85 C 629.9800000000002 285.97 630.0700000000002 287.02000000000004 630.1700000000002 288 C 630.2000000000002 288.3 630.2400000000002 288.58 630.2700000000002 288.87 L 609.9200000000002 261.63 L 605.0700000000002 261.63 L 605.0700000000002 296.63 L 610.4700000000001 296.63 L 610.4700000000001 282.08 C 610.4700000000001 281.78 610.4700000000001 281.43 610.4500000000002 281.03 C 610.4300000000002 280.63 610.4100000000002 280.11999999999995 610.3800000000001 279.5 Z" stroke-linecap="round" />
</g>
		<g transform="matrix(1 0 0 1 -39.19 156.56)"  >
<polygon style="stroke: none; stroke-width: 0; stroke-dasharray: none; stroke-linecap: butt; stroke-dashoffset: 0; stroke-linejoin: miter; stroke-miterlimit: 4; fill: rgb(3,51,47); fill-rule: nonzero; opacity: 1;" vector-effect="non-scaling-stroke"  points="-11.02,17.5 11.03,17.5 11.03,12.3 -5.62,12.3 -5.62,2.15 8.28,2.15 8.28,-3.05 -5.62,-3.05 -5.62,-12.3 11.03,-12.3 11.03,-17.5 -11.02,-17.5 -11.02,17.5 " />
</g>
		<g transform="matrix(1 0 0 1 0.21 156.56)"  >
<polygon style="stroke: none; stroke-width: 0; stroke-dasharray: none; stroke-linecap: butt; stroke-dashoffset: 0; stroke-linejoin: miter; stroke-miterlimit: 4; fill: rgb(3,51,47); fill-rule: nonzero; opacity: 1;" vector-effect="non-scaling-stroke"  points="15.43,-17.5 9.07,-17.5 0.31,-4.14 -8.82,-17.5 -15.68,-17.5 -3.38,-0.42 -15.93,17.5 -9.57,17.5 -0.3,3.95 9.07,17.5 15.93,17.5 3.32,0.14 15.43,-17.5 " />
</g>
		<g transform="matrix(1 0 0 1 42.01 156.56)"  >
<path style="stroke: none; stroke-width: 0; stroke-dasharray: none; stroke-linecap: butt; stroke-dashoffset: 0; stroke-linejoin: miter; stroke-miterlimit: 4; fill: rgb(3,51,47); fill-rule: nonzero; opacity: 1;" vector-effect="non-scaling-stroke"  transform=" translate(-471.87, -331.13)" d="M 479.01 315.05 C 477.46 314.1 475.74 313.63 473.84 313.63 L 459.59 313.63 L 459.59 348.63 L 464.98999999999995 348.63 L 464.98999999999995 335.23 L 473.84 335.23 C 475.73999999999995 335.23 477.46 334.74 479.01 333.76 C 480.56 332.78 481.8 331.46999999999997 482.74 329.84 C 483.67 328.21 484.14 326.39 484.14 324.39 C 484.14 322.39 483.66999999999996 320.57 482.74 318.94 C 481.81 317.31 480.56 316.02 479.01 315.06 Z M 477.96 327.2 C 477.51 328.05 476.91999999999996 328.72999999999996 476.19 329.25 C 475.46 329.77 474.64 330.03 473.74 330.03 L 464.99 330.03 L 464.99 318.83 L 473.74 318.83 C 474.64 318.83 475.46000000000004 319.08 476.19 319.58 C 476.92 320.08 477.51 320.75 477.96 321.58 C 478.40999999999997 322.40999999999997 478.63 323.34999999999997 478.63 324.38 C 478.63 325.41 478.40999999999997 326.35 477.96 327.21 Z" stroke-linecap="round" />
</g>
		<g transform="matrix(1 0 0 1 79.96 156.56)"  >
<polygon style="stroke: none; stroke-width: 0; stroke-dasharray: none; stroke-linecap: butt; stroke-dashoffset: 0; stroke-linejoin: miter; stroke-miterlimit: 4; fill: rgb(3,51,47); fill-rule: nonzero; opacity: 1;" vector-effect="non-scaling-stroke"  points="-11.03,17.5 11.02,17.5 11.02,12.3 -5.63,12.3 -5.63,2.15 8.27,2.15 8.27,-3.05 -5.63,-3.05 -5.63,-12.3 11.02,-12.3 11.02,-17.5 -11.03,-17.5 -11.03,17.5 " />
</g>
		<g transform="matrix(1 0 0 1 120.81 156.59)"  >
<path style="stroke: none; stroke-width: 0; stroke-dasharray: none; stroke-linecap: butt; stroke-dashoffset: 0; stroke-linejoin: miter; stroke-miterlimit: 4; fill: rgb(3,51,47); fill-rule: nonzero; opacity: 1;" vector-effect="non-scaling-stroke"  transform=" translate(-550.67, -331.15)" d="M 557.44 334 C 559.11 333.02 560.44 331.71 561.44 330.08 C 562.44 328.45 562.94 326.68 562.94 324.78 C 562.94 322.67999999999995 562.44 320.78999999999996 561.44 319.09999999999997 C 560.44 317.41999999999996 559.1 316.08 557.4100000000001 315.09999999999997 C 555.7300000000001 314.11999999999995 553.8900000000001 313.62999999999994 551.8900000000001 313.62999999999994 L 536.9900000000001 313.62999999999994 L 536.9900000000001 348.62999999999994 L 542.3900000000001 348.62999999999994 L 542.3900000000001 335.47999999999996 L 550.3800000000001 335.47999999999996 L 557.7900000000001 348.62999999999994 L 564.34 348.67999999999995 L 556.2 334.62999999999994 C 556.62 334.44999999999993 557.0400000000001 334.24999999999994 557.44 334.00999999999993 Z M 542.39 318.83 L 550.99 318.83 C 552.22 318.83 553.33 319.08 554.32 319.58 C 555.3000000000001 320.08 556.07 320.77 556.62 321.65999999999997 C 557.17 322.54999999999995 557.45 323.57 557.45 324.72999999999996 C 557.45 325.75999999999993 557.23 326.71 556.8000000000001 327.55999999999995 C 556.3700000000001 328.40999999999997 555.7700000000001 329.0799999999999 555.0000000000001 329.55999999999995 C 554.2300000000001 330.03999999999996 553.3700000000001 330.28999999999996 552.4000000000001 330.28999999999996 L 542.4000000000001 330.28999999999996 L 542.4000000000001 318.84 Z" stroke-linecap="round" />
</g>
		<g transform="matrix(1 0 0 1 157.88 156.56)"  >
<polygon style="stroke: none; stroke-width: 0; stroke-dasharray: none; stroke-linecap: butt; stroke-dashoffset: 0; stroke-linejoin: miter; stroke-miterlimit: 4; fill: rgb(3,51,47); fill-rule: nonzero; opacity: 1;" vector-effect="non-scaling-stroke"  points="-12.65,-12.3 -2.85,-12.3 -2.85,17.5 2.55,17.5 2.55,-12.3 12.65,-12.3 12.65,-17.5 -12.65,-17.5 -12.65,-12.3 " />
</g>
		<g transform="matrix(1 0 0 1 194.26 156.57)"  >
<path style="stroke: none; stroke-width: 0; stroke-dasharray: none; stroke-linecap: butt; stroke-dashoffset: 0; stroke-linejoin: miter; stroke-miterlimit: 4; fill: rgb(3,51,47); fill-rule: nonzero; opacity: 1;" vector-effect="non-scaling-stroke"  transform=" translate(-624.11, -331.14)" d="M 634.04 332.08 C 633.04 331.25 631.8199999999999 330.52 630.39 329.90999999999997 C 628.96 329.28999999999996 627.3199999999999 328.78999999999996 625.49 328.38 C 624.19 328.11 623.07 327.8 622.14 327.46 C 621.21 327.10999999999996 620.47 326.71 619.92 326.26 C 619.3699999999999 325.81 618.9599999999999 325.28999999999996 618.6899999999999 324.71 C 618.42 324.13 618.29 323.47999999999996 618.29 322.78999999999996 C 618.29 321.81999999999994 618.56 320.97999999999996 619.12 320.26 C 619.67 319.53999999999996 620.43 318.98 621.39 318.59 C 622.36 318.19 623.49 317.98999999999995 624.79 317.98999999999995 C 625.92 317.98999999999995 626.99 318.17999999999995 627.99 318.56999999999994 C 628.99 318.94999999999993 629.91 319.5199999999999 630.74 320.2699999999999 C 631.57 321.0199999999999 632.32 321.93999999999994 632.99 323.0499999999999 L 636.79 319.2999999999999 C 636.02 317.9699999999999 635.06 316.8399999999999 633.89 315.9199999999999 C 632.72 314.9999999999999 631.39 314.3099999999999 629.89 313.8399999999999 C 628.39 313.36999999999995 626.74 313.13999999999993 624.9399999999999 313.13999999999993 C 623.2399999999999 313.13999999999993 621.66 313.37999999999994 620.1899999999999 313.85999999999996 C 618.7199999999999 314.34 617.4499999999999 315.03 616.3699999999999 315.90999999999997 C 615.2899999999998 316.78999999999996 614.4399999999999 317.83 613.8199999999999 319.03 C 613.1999999999999 320.22999999999996 612.89 321.53 612.89 322.92999999999995 C 612.89 324.3299999999999 613.11 325.65999999999997 613.54 326.80999999999995 C 613.9699999999999 327.9599999999999 614.64 328.97999999999996 615.54 329.88999999999993 C 616.4399999999999 330.7899999999999 617.56 331.5399999999999 618.89 332.13999999999993 C 620.22 332.73999999999995 621.79 333.2199999999999 623.59 333.5899999999999 C 624.72 333.7899999999999 625.72 334.0299999999999 626.59 334.30999999999995 C 627.46 334.5899999999999 628.21 334.91999999999996 628.87 335.28999999999996 C 629.52 335.65999999999997 630.05 336.05999999999995 630.47 336.48999999999995 C 630.89 336.91999999999996 631.2 337.40999999999997 631.39 337.93999999999994 C 631.59 338.4699999999999 631.6899999999999 339.03999999999996 631.6899999999999 339.63999999999993 C 631.6899999999999 340.5399999999999 631.39 341.3399999999999 630.79 342.0399999999999 C 630.1899999999999 342.7399999999999 629.37 343.2899999999999 628.3399999999999 343.6899999999999 C 627.31 344.08999999999986 626.16 344.2899999999999 624.8899999999999 344.2899999999999 C 622.8199999999998 344.2899999999999 621.0399999999998 343.8399999999999 619.5399999999998 342.9399999999999 C 618.0399999999998 342.0399999999999 616.4699999999998 340.4199999999999 614.8399999999998 338.08999999999986 L 611.1399999999998 342.33999999999986 C 612.1699999999997 343.83999999999986 613.3499999999998 345.09999999999985 614.6699999999997 346.10999999999984 C 615.9899999999998 347.1299999999998 617.4499999999997 347.8899999999998 619.0699999999997 348.3899999999998 C 620.6899999999997 348.8899999999998 622.4499999999997 349.1399999999998 624.3399999999997 349.1399999999998 C 626.9699999999997 349.1399999999998 629.2399999999997 348.6999999999998 631.1399999999996 347.80999999999983 C 633.0399999999996 346.92999999999984 634.5099999999996 345.66999999999985 635.5399999999996 344.03999999999985 C 636.5699999999996 342.40999999999985 637.0899999999996 340.46999999999986 637.0899999999996 338.23999999999984 C 637.0899999999996 337.03999999999985 636.8299999999996 335.91999999999985 636.3199999999996 334.8899999999998 C 635.7999999999996 333.85999999999984 635.0499999999996 332.9199999999998 634.0499999999996 332.0899999999998 Z" stroke-linecap="round" />
</g>
</g>
</g>
</svg>